<svg xmlns="http://www.w3.org/2000/svg" id="Layer_1" data-name="Layer 1" viewBox="0 0 260 260"><defs><style>.cls-1{fill:#f3f6f7}.cls-2{fill:#eaedef}.cls-3{fill:#fff}.cls-4{fill:#eff3f5}.cls-5{fill:#d0d7da}</style></defs><title>imageCommand_light</title><g id="Canvas"><g id="recent-events"><g id="Rectangle_16" data-name="Rectangle 16"><path id="path0_fill" d="M57,208a4,4,0,0,1,4-4H183a4,4,0,0,1,0,8H61A4,4,0,0,1,57,208Z" class="cls-1" data-name="path0 fill"/></g><g id="Rectangle_16-2" data-name="Rectangle 16"><path id="path1_fill" d="M72,228a4,4,0,0,1,4-4h92a4,4,0,0,1,0,8H76A4,4,0,0,1,72,228Z" class="cls-1" data-name="path1 fill"/></g><g id="fill"><g id="Rectangle_12" data-name="Rectangle 12"><path id="path2_fill" d="M53,116H179v80H53Z" class="cls-2" data-name="path2 fill"/></g><g id="Rectangle_13" data-name="Rectangle 13"><path id="path3_fill" d="M63,125h53v17H63Z" class="cls-3" data-name="path3 fill"/></g><g id="Rectangle_14" data-name="Rectangle 14"><path id="path4_fill" d="M68,150h95v12H68Z" class="cls-3" data-name="path4 fill"/></g><g id="Rectangle_14-2" data-name="Rectangle 14"><path id="path4_fill-2" d="M68,170h95v12H68Z" class="cls-3" data-name="path4 fill"/></g><g id="Rectangle_14-3" data-name="Rectangle 14"><path id="path4_fill-3" d="M68,190h95v12H68Z" class="cls-3" data-name="path4 fill"/></g><g id="Rectangle_14-4" data-name="Rectangle 14"><path id="path4_fill-4" d="M68,210h95v12H68Z" class="cls-3" data-name="path4 fill"/></g><g id="Rectangle_15" data-name="Rectangle 15"><path id="path5_fill" d="M213,62H119v64l-9.58,9.91a3,3,0,0,0,2.15,5.09H213Z" class="cls-3" data-name="path5 fill"/></g><g id="Ellipse_3" data-name="Ellipse 3"><path id="path6_fill" d="M66,106a3,3,0,1,1-3-3A3,3,0,0,1,66,106Z" class="cls-4" data-name="path6 fill"/></g><g id="Ellipse_3-2" data-name="Ellipse 3"><path id="path6_fill-2" d="M79,106a3,3,0,1,1-3-3A3,3,0,0,1,79,106Z" class="cls-4" data-name="path6 fill"/></g><g id="Ellipse_3-3" data-name="Ellipse 3"><path id="path6_fill-3" d="M92,106a3,3,0,1,1-3-3A3,3,0,0,1,92,106Z" class="cls-4" data-name="path6 fill"/></g><g id="Rectangle_3" data-name="Rectangle 3"><path id="path7_fill" d="M53,97h66v19H53Z" class="cls-3" data-name="path7 fill"/></g></g><g id="outline"><g id="Vector_5" data-name="Vector 5"><path id="path8_stroke" d="M59,98h58V94H59Zm-4,92V116H51v74Zm0-74V102H51v14Zm62-18v16h4V98ZM53,118h64v-4H53Zm124,24v48h4V142Zm-4,52h-9v4h9ZM68,194H59v4h9ZM59,94a8,8,0,0,0-8,8h4a4,4,0,0,1,4-4Zm58,4h4a4,4,0,0,0-4-4Zm60,92a4,4,0,0,1-4,4v4a8,8,0,0,0,8-8ZM51,190a8,8,0,0,0,8,8v-4a4,4,0,0,1-4-4Zm66-76v4a4,4,0,0,0,4-4Z" class="cls-5" data-name="path8 stroke"/></g><g id="Ellipse_2" data-name="Ellipse 2"><path id="path9_stroke" d="M64,106a1,1,0,0,1-1,1v4a5,5,0,0,0,5-5Zm-1,1a1,1,0,0,1-1-1H58a5,5,0,0,0,5,5Zm-1-1a1,1,0,0,1,1-1v-4a5,5,0,0,0-5,5Zm1-1a1,1,0,0,1,1,1h4a5,5,0,0,0-5-5Z" class="cls-5" data-name="path9 stroke"/></g><g id="Ellipse_2-2" data-name="Ellipse 2"><path id="path9_stroke-2" d="M77,106a1,1,0,0,1-1,1v4a5,5,0,0,0,5-5Zm-1,1a1,1,0,0,1-1-1H71a5,5,0,0,0,5,5Zm-1-1a1,1,0,0,1,1-1v-4a5,5,0,0,0-5,5Zm1-1a1,1,0,0,1,1,1h4a5,5,0,0,0-5-5Z" class="cls-5" data-name="path9 stroke"/></g><g id="Ellipse_2-3" data-name="Ellipse 2"><path id="path9_stroke-3" d="M90,106a1,1,0,0,1-1,1v4a5,5,0,0,0,5-5Zm-1,1a1,1,0,0,1-1-1H84a5,5,0,0,0,5,5Zm-1-1a1,1,0,0,1,1-1v-4a5,5,0,0,0-5,5Zm1-1a1,1,0,0,1,1,1h4a5,5,0,0,0-5-5Z" class="cls-5" data-name="path9 stroke"/></g><g id="Rectangle_5" data-name="Rectangle 5"><path id="path10_stroke" d="M162,152v8h4v-8Zm-92,8v-8H66v8Zm0-8H80v-4H70Zm10,0h82v-4H80Zm82,8H80v4h82Zm-82,0H70v4H80Zm-2-10v12h4V150Zm-8,2v-4a4,4,0,0,0-4,4Zm96,0a4,4,0,0,0-4-4v4Zm-4,8v4a4,4,0,0,0,4-4Zm-96,0a4,4,0,0,0,4,4v-4Z" class="cls-5" data-name="path10 stroke"/></g><g id="Rectangle_5-2" data-name="Rectangle 5"><path id="path10_stroke-2" d="M162,172v8h4v-8Zm-92,8v-8H66v8Zm0-8H80v-4H70Zm10,0h82v-4H80Zm82,8H80v4h82Zm-82,0H70v4H80Zm-2-10v12h4V170Zm-8,2v-4a4,4,0,0,0-4,4Zm96,0a4,4,0,0,0-4-4v4Zm-4,8v4a4,4,0,0,0,4-4Zm-96,0a4,4,0,0,0,4,4v-4Z" class="cls-5" data-name="path10 stroke"/></g><g id="Rectangle_5-3" data-name="Rectangle 5"><path id="path10_stroke-3" d="M162,192v8h4v-8Zm-92,8v-8H66v8Zm0-8H80v-4H70Zm10,0h82v-4H80Zm82,8H80v4h82Zm-82,0H70v4H80Zm-2-10v12h4V190Zm-8,2v-4a4,4,0,0,0-4,4Zm96,0a4,4,0,0,0-4-4v4Zm-4,8v4a4,4,0,0,0,4-4Zm-96,0a4,4,0,0,0,4,4v-4Z" class="cls-5" data-name="path10 stroke"/></g><g id="Rectangle_5-4" data-name="Rectangle 5"><path id="path10_stroke-4" d="M162,212v8h4v-8Zm-92,8v-8H66v8Zm0-8H80v-4H70Zm10,0h82v-4H80Zm82,8H80v4h82Zm-82,0H70v4H80Zm-2-10v12h4V210Zm-8,2v-4a4,4,0,0,0-4,4Zm96,0a4,4,0,0,0-4-4v4Zm-4,8v4a4,4,0,0,0,4-4Zm-96,0a4,4,0,0,0,4,4v-4Z" class="cls-5" data-name="path10 stroke"/></g><g id="Rectangle_11" data-name="Rectangle 11"><path id="path11_stroke" d="M119,126l1.41,1.41.59-.58V126Zm-10.88,10.88,1.42,1.41ZM125,64h82V60H125Zm86,4v68h4V68Zm-4,72H119v4h88Zm-86-14V68h-4v58Zm-2,14h-8.76v4H119Zm-9.46-1.71,10.87-10.88-2.82-2.82-10.88,10.87ZM61,128v12h4V128Zm4,16H79v-4H65Zm14,0h40v-4H79Zm40-20H79v4h40Zm-40,0H65v4H79Zm2,18V126H77v16Zm44-82a8,8,0,0,0-8,8h4a4,4,0,0,1,4-4Zm82,4a4,4,0,0,1,4,4h4a8,8,0,0,0-8-8Zm4,72a4,4,0,0,1-4,4v4a8,8,0,0,0,8-8Zm-100.76,4a1,1,0,0,1-.7-1.71l-2.83-2.83a5,5,0,0,0,3.53,8.54ZM65,128v-4a4,4,0,0,0-4,4Zm-4,12a4,4,0,0,0,4,4v-4Z" class="cls-5" data-name="path11 stroke"/></g><g id="Vector_6" data-name="Vector 6"><path id="path12_stroke" d="M134,75a2,2,0,0,0,0,4Zm4,4a2,2,0,0,0,0-4Zm-4,0h4V75h-4Z" class="cls-5" data-name="path12 stroke"/></g><g id="Vector_6-2" data-name="Vector 6"><path id="path13_stroke" d="M148,75a2,2,0,0,0,0,4Zm50,4a2,2,0,0,0,0-4Zm-50,0h50V75H148Z" class="cls-5" data-name="path13 stroke"/></g><g id="Vector_6-3" data-name="Vector 6"><path id="path14_stroke" d="M148,85a2,2,0,0,0,0,4Zm30,4a2,2,0,0,0,0-4Zm-30,0h30V85H148Z" class="cls-5" data-name="path14 stroke"/></g><g id="Vector_6-4" data-name="Vector 6"><path id="path15_stroke" d="M148,95a2,2,0,0,0,0,4Zm40,4a2,2,0,0,0,0-4Zm-40,0h40V95H148Z" class="cls-5" data-name="path15 stroke"/></g><g id="Vector_6-5" data-name="Vector 6"><path id="path14_stroke-2" d="M148,105a2,2,0,0,0,0,4Zm30,4a2,2,0,0,0,0-4Zm-30,0h30v-4H148Z" class="cls-5" data-name="path14 stroke"/></g><g id="Vector_6-6" data-name="Vector 6"><path id="path13_stroke-2" d="M148,115a2,2,0,0,0,0,4Zm50,4a2,2,0,0,0,0-4Zm-50,0h50v-4H148Z" class="cls-5" data-name="path13 stroke"/></g><g id="Vector_6-7" data-name="Vector 6"><path id="path15_stroke-2" d="M148,125a2,2,0,0,0,0,4Zm40,4a2,2,0,0,0,0-4Zm-40,0h40v-4H148Z" class="cls-5" data-name="path15 stroke"/></g><g id="Vector_6-8" data-name="Vector 6"><path id="path12_stroke-2" d="M134,95a2,2,0,0,0,0,4Zm4,4a2,2,0,0,0,0-4Zm-4,0h4V95h-4Z" class="cls-5" data-name="path12 stroke"/></g><g id="Vector_6-9" data-name="Vector 6"><path id="path12_stroke-3" d="M134,115a2,2,0,0,0,0,4Zm4,4a2,2,0,0,0,0-4Zm-4,0h4v-4h-4Z" class="cls-5" data-name="path12 stroke"/></g></g><g id="shadows"><g id="Rectangle_17" data-name="Rectangle 17"><path id="path16_fill" d="M181,144h36a4,4,0,0,1,0,8H181Z" class="cls-1" data-name="path16 fill"/></g></g><g id="decoration"><g id="Union"><path id="path17_fill" d="M202,37a1,1,0,0,0,2,0V34h3a1,1,0,0,0,0-2h-3V29a1,1,0,0,0-2,0v3h-3a1,1,0,0,0,0,2h3Z" class="cls-2" data-name="path17 fill"/></g><g id="Union-2" data-name="Union"><path id="path18_fill" d="M215,203a1,1,0,0,0,2,0v-3h3a1,1,0,0,0,0-2h-3v-3a1,1,0,0,0-2,0v3h-3a1,1,0,0,0,0,2h3Z" class="cls-1" data-name="path18 fill"/></g><g id="Union-3" data-name="Union"><path id="path19_fill" d="M21,96a1,1,0,0,0,2,0V93h3a1,1,0,0,0,0-2H23V88a1,1,0,0,0-2,0v3H18a1,1,0,0,0,0,2h3Z" class="cls-1" data-name="path19 fill"/></g><g id="Union-4" data-name="Union"><path id="path20_fill" d="M112,34a1,1,0,0,0,2,0V33h1a1,1,0,0,0,0-2h-1V30a1,1,0,0,0-2,0v1h-1a1,1,0,0,0,0,2h1Z" class="cls-2" data-name="path20 fill"/></g><g id="Union-5" data-name="Union"><path id="path21_fill" d="M21,197a1,1,0,0,0,2,0v-1h1a1,1,0,0,0,0-2H23v-1a1,1,0,0,0-2,0v1H20a1,1,0,0,0,0,2h1Z" class="cls-2" data-name="path21 fill"/></g><g id="Union-6" data-name="Union"><path id="path22_fill" d="M235,112a1,1,0,0,0,2,0v-1h1a1,1,0,0,0,0-2h-1v-1a1,1,0,0,0-2,0v1h-1a1,1,0,0,0,0,2h1Z" class="cls-2" data-name="path22 fill"/></g><g id="Ellipse_9" data-name="Ellipse 9"><path id="path23_fill" d="M95,67a4,4,0,1,1-4-4A4,4,0,0,1,95,67Z" class="cls-1" data-name="path23 fill"/></g><g id="Ellipse_9-2" data-name="Ellipse 9"><path id="path23_fill-2" d="M205,171a4,4,0,1,1-4-4A4,4,0,0,1,205,171Z" class="cls-2" data-name="path23 fill"/></g><g id="Ellipse_9-3" data-name="Ellipse 9"><path id="path23_fill-3" d="M26,160a4,4,0,1,1-4-4A4,4,0,0,1,26,160Z" class="cls-1" data-name="path23 fill"/></g><g id="Ellipse_9-4" data-name="Ellipse 9"><path id="path24_fill" d="M156,40a2,2,0,1,1-2-2A2,2,0,0,1,156,40Z" class="cls-1" data-name="path24 fill"/></g><g id="Ellipse_9-5" data-name="Ellipse 9"><path id="path24_fill-2" d="M35,125a2,2,0,1,1-2-2A2,2,0,0,1,35,125Z" class="cls-2" data-name="path24 fill"/></g><g id="Ellipse_9-6" data-name="Ellipse 9"><path id="path24_fill-3" d="M57,68.75a2,2,0,1,1-2-2A2,2,0,0,1,57,68.75Z" class="cls-2" data-name="path24 fill"/></g><g id="Ellipse_9-7" data-name="Ellipse 9"><path id="path24_fill-4" d="M235,74a2,2,0,1,1-2-2A2,2,0,0,1,235,74Z" class="cls-1" data-name="path24 fill"/></g><g id="Ellipse_9-8" data-name="Ellipse 9"><path id="path24_fill-5" d="M243,143a2,2,0,1,1-2-2A2,2,0,0,1,243,143Z" class="cls-1" data-name="path24 fill"/></g></g></g></g></svg>